/* XPM */
static char * icon_xpm[] = {
"64 64 221 2",
"  	c None",
". 	c #FFF21B",
"+ 	c #50514A",
"@ 	c #525545",
"# 	c #535F3A",
"$ 	c #47682C",
"% 	c #0E6E12",
"& 	c #007408",
"* 	c #366E1F",
"= 	c #646835",
"- 	c #606833",
"; 	c #596831",
"> 	c #506730",
", 	c #46652F",
"' 	c #3D642E",
") 	c #37652A",
"! 	c #000096",
"~ 	c #141482",
"{ 	c #2E2E6A",
"] 	c #3D3F5A",
"^ 	c #364253",
"/ 	c #1E5A30",
"( 	c #047608",
"_ 	c #007706",
": 	c #197312",
"< 	c #566A2E",
"[ 	c #676836",
"} 	c #516730",
"| 	c #35632C",
"1 	c #0A0A8C",
"2 	c #02048F",
"3 	c #001C72",
"4 	c #00562C",
"5 	c #00700D",
"6 	c #0C750C",
"7 	c #356F1F",
"8 	c #4F6B2B",
"9 	c #5A6930",
"0 	c #656835",
"a 	c #606932",
"b 	c #297019",
"c 	c #000292",
"d 	c #00147D",
"e 	c #003852",
"f 	c #006817",
"g 	c #007507",
"h 	c #067609",
"i 	c #0C750B",
"j 	c #08750A",
"k 	c #0E740C",
"l 	c #15730F",
"m 	c #525349",
"n 	c #60613C",
"o 	c #141483",
"p 	c #001976",
"q 	c #005232",
"r 	c #575844",
"s 	c #2A2A6E",
"t 	c #040491",
"u 	c #000095",
"v 	c #000F83",
"w 	c #00493C",
"x 	c #465D39",
"y 	c #1C1C7B",
"z 	c #000D85",
"A 	c #003B4D",
"B 	c #00651B",
"C 	c #006718",
"D 	c #48652F",
"E 	c #545546",
"F 	c #000094",
"G 	c #00078D",
"H 	c #001878",
"I 	c #004146",
"J 	c #00592A",
"K 	c #006D11",
"L 	c #004245",
"M 	c #002865",
"N 	c #526730",
"O 	c #636439",
"P 	c #00137E",
"Q 	c #003A4E",
"R 	c #006719",
"S 	c #007409",
"T 	c #006916",
"U 	c #00206F",
"V 	c #00078C",
"W 	c #00068E",
"X 	c #000D86",
"Y 	c #001779",
"Z 	c #00157B",
"` 	c #000B88",
" .	c #00058F",
"..	c #586831",
"+.	c #3A3A5F",
"@.	c #005E23",
"#.	c #007606",
"$.	c #003456",
"%.	c #576831",
"&.	c #5E5F3D",
"*.	c #0A750B",
"=.	c #006E10",
"-.	c #4E672F",
";.	c #666736",
">.	c #323366",
",.	c #003851",
"'.	c #2D701B",
").	c #4B6B29",
"!.	c #4C6B29",
"~.	c #346F1E",
"{.	c #157310",
"].	c #005C25",
"^.	c #00167A",
"/.	c #36642B",
"(.	c #303168",
"_.	c #005F22",
":.	c #476C27",
"<.	c #516B2C",
"[.	c #04720C",
"}.	c #0B6024",
"|.	c #656735",
"1.	c #323266",
"2.	c #1E7214",
"3.	c #396E20",
"4.	c #044E37",
"5.	c #3C6E22",
"6.	c #61623B",
"7.	c #121284",
"8.	c #003654",
"9.	c #0A750A",
"0.	c #586A2F",
"a.	c #33632C",
"b.	c #056818",
"c.	c #596732",
"d.	c #424258",
"e.	c #00127F",
"f.	c #002F5C",
"g.	c #00621F",
"h.	c #007607",
"i.	c #406D24",
"j.	c #666835",
"k.	c #2B2B6D",
"l.	c #1D7213",
"m.	c #656637",
"n.	c #18187F",
"o.	c #003F48",
"p.	c #007309",
"q.	c #316F1C",
"r.	c #386C21",
"s.	c #565645",
"t.	c #242573",
"u.	c #006619",
"v.	c #54682F",
"w.	c #333366",
"x.	c #00651A",
"y.	c #426D24",
"z.	c #646834",
"A.	c #28296F",
"B.	c #0A740A",
"C.	c #606537",
"D.	c #62633A",
"E.	c #00305B",
"F.	c #006B14",
"G.	c #3B6E21",
"H.	c #616833",
"I.	c #006D10",
"J.	c #14740F",
"K.	c #5F6833",
"L.	c #4F504B",
"M.	c #237116",
"N.	c #626735",
"O.	c #3D3E5C",
"P.	c #10740D",
"Q.	c #5C603C",
"R.	c #151582",
"S.	c #050591",
"T.	c #5C6832",
"U.	c #61623A",
"V.	c #1F1F79",
"W.	c #006E0F",
"X.	c #1B7312",
"Y.	c #5F603C",
"Z.	c #000B87",
"`.	c #3F6D23",
" +	c #383960",
".+	c #00473F",
"++	c #486C27",
"@+	c #006C11",
"#+	c #003555",
"$+	c #006B13",
"%+	c #005034",
"&+	c #334D46",
"*+	c #00236B",
"=+	c #191A7D",
"-+	c #646537",
";+	c #585943",
">+	c #00700C",
",+	c #0C0D89",
"'+	c #202077",
")+	c #005E22",
"!+	c #001F6F",
"~+	c #004D38",
"{+	c #00226C",
"]+	c #00236A",
"^+	c #00641C",
"/+	c #005D24",
"(+	c #007508",
"_+	c #000E83",
":+	c #001D71",
"<+	c #003B4E",
"[+	c #00700E",
"}+	c #004A3C",
"|+	c #003A4F",
"1+	c #002C5F",
"2+	c #000C87",
"3+	c #001D72",
"4+	c #004443",
"5+	c #00088B",
"6+	c #00720B",
"7+	c #006C12",
"8+	c #002C60",
". . . . . . . . . . . . . . . . . . .                                                                                           ",
". . . . . . . . . . . . . . . . . . . .                   . . . . . . . . . . .                                                 ",
". . . . . . . . . . . . . . . . . . . .       . . . . . . . . . . . . . . . . . .                                               ",
". . . . . . . . . . . . . . . . . . . .       . . . . . . . . . . . . . . . . . .                                               ",
". . . . . . . . . . . . . . . . . . . .       . . . . . . . . . . . . . . . . .                                                 ",
". . . . . . . . . . . . . . . . . . . .                                                                                         ",
". . . . . . . . . . . . . . . . . . . .                                                                                         ",
". . . . . . . . . . . . . . . . . . .                                                                                           ",
". . . . . . . . . . . . . . . . . . .                                                                                           ",
". . . . . . . . . . . . . . . . . . .                                                                                           ",
". . . . . . . . . . . . . . . . . . .       . . . . .                                                                           ",
". . . . . . . . . . . . . . . . . .         . . . . . . .                                   + @ # $ % & * = - ; > , ' )         ",
". . . . . . . . . . . . . . . . . .         . . . . . . . .                           ! ! ~ { ] ^ / ( _ : < [ [ [ [ [ [ [ } |   ",
". . . . . . . . . . . . . . . . .             . . . . . . .                     ! ! ! ! ! ! ! 1 2 3 4 5 _ 6 7 8 9 - 0 [ [ a b _ ",
". . . . . . . . . . . . . . . . .                   . . .                   ! ! ! ! ! ! ! ! ! ! ! c d e f g _ h i j k l l _ _ _ ",
". . . . . . . . . . . . . . . .                                       m n o ! ! ! ! ! ! ! ! ! ! ! ! ! c p q _ _ _ _ _ _ _ _ _ _ ",
". . . . . . . . . . . . . . .                                       r [ [ s t ! ! ! ! ! ! ! ! ! ! ! ! ! u v w _ _ _ _ _ _ _ _ _ ",
". . . . . . . . . . . . . .                                     x [ [ [ [ y ! ! ! ! ! ! ! ! ! ! ! ! ! ! ! u z A B _ _ _ _ _ _ C ",
". . . . . . . . . . . . .                                     D [ [ [ [ E 1 ! ! ! ! ! ! ! ! ! ! ! ! ! ! ! ! F G H I J _ _ K L M ",
". . . . . . . . . . . .                                     N [ [ [ [ O ~ ! ! ! ! ! ! ! P Q R _ _ S T w U V ! ! F W X Y Y Z `  .",
". . . . . . . . . .                                       ..[ [ [ [ [ +.! ! ! ! ! ! ! P @._ _ _ _ _ _ #.C $.V ! ! ! ! ! ! ! ! ! ",
"    . . . . .                 . . . .                   %.[ [ [ [ [ &.! ! ! ! ! ! ! P @._ _ _ _ _ _ h *._ =.$.V ! ! ! ! ! ! ! ! ",
"                              . . . .                 -.[ [ [ [ [ ;.>.! ! ! ! ! ! ! ,._ _ _ _ _ 6 '.).!.~.{.].^.! ! ! ! ! ! ! ! ",
"                              . . . . .             /.[ [ [ [ [ O (.! ! ! ! ! ! ! ! _._ _ _ _ _ :.[ [ [ [ <.[.$.! ! ! ! ! ! ! ! ",
"                                . . . .           }.|.[ [ [ [ [ 1.! ! ! ! ! ! ! ! ! _ _ _ _ _ 2.[ [ [ [ [ [ 3.4.! ! ! ! ! ! ! ! ",
"                                . . . . .         5.[ [ [ [ [ 6.7.! ! ! ! ! ! V ^.8._ _ _ _ 9.0.[ [ [ [ [ [ 0 a.! ! ! ! ! ! ! ! ",
"        . . .                     . . . .       b.c.[ [ [ [ [ d.! ! ! ! ! e.f.g.5 h._ _ _ _ i.[ [ [ [ [ [ [ [ j.k.! ! ! ! ! ! ! ",
"        . . . .                   . . . .     _.l.|.[ [ [ [ m.n.! ! ! Y o.p._ _ _ _ _ _ 9.q.j.[ [ [ [ [ [ [ [ [ n 1 ! ! ! ! ! ! ",
"        . . .                       . . .     #.r.[ [ [ [ [ s.t ! ! Y f _ _ _ _ _ _ _ _ 8 [ [ [ [ [ [ [ [ [ [ [ [ t.! ! ! ! ! ! ",
"        . . . .                             u.h v.[ [ [ [ [ w.! ! Y x._ _ _ _ _ _ _ _ y.[ [ [ [ [ [ [ z.[ [ [ [ [ A.t ! ! ! ! ! ",
"        . . . .                             _ B.C.[ [ [ [ D.7.! ! E.F._ _ _ _ _ _ _ _ [ [ [ [ [ [ [ [ G.H.[ [ [ [ o ! ! ! ! ! ! ",
"        . . . .                           I._ J.K.[ [ [ [ L.t ! ! _._ _ _ _ _ _ _ _ M.[ [ [ [ [ [ [ [ [ 0 N.[ [ O.1 ! ! ! ! ! ! ",
"        . . . .                           g _ _ < [ [ [ [ t.! ! ! _._ _ _ _ _ _ _ _ P.[ [ [ [ [ [ [ [ [ [ Q.R.S.! ! ! ! ! ! ! ! ",
"          . . .                         K _ _ _ b T.[ [ O.1 ! ! ! _._ _ _ _ _ _ _ _ G.[ [ [ [ [ [ [ [ [ [ U.V.! ! ! ! ! ! ! ! ! ",
"          . . .                         W._ _ _ _ _ R.S.! ! ! ! ! E.F._ _ _ _ _ _ X.0 [ [ [ [ [ [ [ [ [ [ Y.! ! ! ! ! ! ! ! ! ! ",
"          . . . .                       & _ _ _ _ _ Y Y Z. .! ! ! Y x._ _ _ _ _ _ `.[ [ [ [ [ [ [ [ [ [ [  +! ! ! ! ! ! ! ! ! ! ",
"          . . . .                       _ _ _ _ _ _ _ _ .+f. .! ! ! Y x._ _ _ _ 6 ++[ [ [ [ [ [ [ [ [ O  +! ! ! ! ! ! ! ! ! ! ! ",
"          . . . .                     @+_ _ _ _ _ _ _ _ _ _ f. .! ! ! Y #+$+_ _ %+&+[ [ [ [ [ [ O  +V.! ! ! ! ! ! ! ! ! ! ! ! ! ",
"          . . . .                     =._ _ _ _ _ _ _ _ _ _ _ *+! ! ! ! ! ! ! ! ! =+r [ [ -+;+A.! ! ! ! ! ! ! ! ! ! ! ! ! ! ! ! ",
"          . . . .                     >+_ _ _ _ _ _ _ _ _ _ _ .+! ! ! ! ! ! ! ! ! ! ! ,+'+1 ! ! ! ! ! ! ! ! ! ! ! ! ! ! ! ! ! ! ",
"            . . .                     )+!+_ _ _ _ _ _ _ _ _ _ _ ! ! ! ! ! ! ! ! ! ! ! ! ! ! ! ! ! ! ! ! ! ! ! ! ! ! ! ! ! ! ! ! ",
"            . . .                     ~+ ._ _ _ _ _ _ _ _ _ _ _ ! ! ! ! ! ! ! ! ! ! ! ! ! ! ! ! ! ! ! ! ! ! ! ! ! ! ! ! ! ! ! ! ",
"            . . .                     {+! F._ _ _ _ _ _ _ _ _ F.! ! ! ! ! ! ! ! ! ! ! ! ! ! ! ! ! ! ! ! ! ! ! ! ! ! ! ! ! ! ! ! ",
"                                      v ! #+_ _ _ _ _ _ _ _ _ #+! ! ! ! ! ! ! ! ! ! ! ! ! ! ! ! ! ! ! ! ! ! ! ! ! ! ! ! ! ! ! ! ",
"                                      ! ! Y x._ _ _ _ _ _ _ x.Y ! ! ! ! ! ! ! ! ! ! ! ! ! ! ! ! ! ! ! ! ! ! ! ! ! ! ! ! ! ! ! ! ",
"                                      ! ! ! Y x.F._ _ _ F.x.Y ! ! ! ! ! ! ! ! ! ! ! ! ! ! ! ! ! ! ! ! ! ! ! ! ! ! ! ! ! ! ! ! ! ",
"                                      ! ! ! ! Y E._._._.E.Y ! ! ! ! ! ! ! ! ! ! ! ! ! ! ! ! ! ! ! ! ! ! ! ! ! ! ! ! ! ! Y E._._.",
"                                      ! ! ! ! ! ! ! ! ! ! ! ! ! ! ! ! ! ! ! ! ! ! ! ! ! ! ! ! ! ! ! ! ! ! ! ! ! ! ! ! Y x.F._ _ ",
"                                        ! ! ! ! ! ! ! ! ! ! ! ! ! ! ! ! ! ! ! ! ! ! ! ! ! ! ! ! ! ! ! ! ! ! ! ! ! ! ]+=._ _ _ _ ",
"                                        ! ! ! ! ! ! ! ! ! ! ! ! ! ! ! ! ! ! ! ! ! ! ! ! ! ! ! ! ! ! ! ! ! ! ! ! ! P ^+_ _ _ _ _ ",
"                                        ! ! ! ! ! ! ! ! ! ! ! ! ! ! ! ! ! ! ! ! ! ! ! ! ! ! ! ! ! ! ! ! ! ! ! ! P /+_ _ _ _ _ _ ",
"                                        ! ! ! ! ! ! ! ! ! ! ! ! ! ! ! ! ! ! ! ! ! ! ! ! ! ! ! ! ! ! ! ! ! ! !  .A (+_ _ _ _ _ _ ",
"                                        ! ! ! ! ! ! ! ! ! ! ! ! ! ! ! ! ! ! ! ! ! _+:+<+<+<+:+_+! ! ! ! ! ! ! 3 [+_ _ _ _ _ _ _ ",
"                                          ! ! ! ! ! ! ! ! ! ! ! ! ! ! ! ! ! ! ! _+}+J _ _ _ J }+_+! ! ! ! ! ! |+S _ _ _ _ _ _ _ ",
"                                          ! ! ! ! ! ! ! ! ! ! ! ! ! ! ! ! ! ! _+}+_ _ _ _ _ _ _ }+_+! ! ! ! ! g._ _ _ _ _ _ _ _ ",
"                                          ! ! ! ! ! ! ! ! ! ! ! ! ! ! ! ! ! ! 1+_ _ _ _ _ _ _ _ _ 1+! ! ! ! ! u._ _ _ _ _ _ _ _ ",
"                                            ! ! ! ! ! ! ! ! ! ! ! ! ! ! ! ! ! J _ _ _ _ _ _ _ _ _ J ! ! ! ! 2+=._ _ _ _ _ _ _ _ ",
"                                            ! ! ! ! ! ! ! ! ! ! ! ! ! ! ! ! ! _ _ _ _ _ _ _ _ _ _ _ ! ! ! ! 3+=._ _ _ _ _ _ _ _ ",
"                                              ! ! ! ! ! ! ! ! ! ! ! ! ! ! ! ! _ _ _ _ _ _ _ _ _ _ _ ! ! ! c 4+h._ _ _ _ _ _ _ _ ",
"                                              ! ! ! ! ! ! ! ! ! ! ! ! ! ! ! ! J _ _ _ _ _ _ _ _ _ J ! ! ! 5+]._ _ _ _ _ _ _ _ _ ",
"                                                ! ! ! ! ! ! ! ! ! ! ! ! ! ! ! 1+_ _ _ _ _ _ _ _ _ 1+! ! ! :+6+_ _ _ _ _ _ _ _ _ ",
"                                                ! ! ! ! ! ! ! ! ! ! ! ! ! ! ! _+}+_ _ _ _ _ _ _ }+_+! ! ! I _ _ _ _ _ _ _ _ _ _ ",
"                                                  ! ! ! ! ! ! ! ! ! ! ! ! ! ! ! _+}+J _ _ _ J }+_+! ! ! 2+7+_ _ _ _ _ _ _ _ _ _ ",
"                                                    ! ! ! ! ! ! ! ! ! ! ! ! ! ! ! _+:+<+<+<+:+_+! ! ! ! 8+_ _ _ _ _ _ _ _ _ _ _ "};
